<svg width="169" height="174" viewBox="0 0 169 174" fill="none" xmlns="http://www.w3.org/2000/svg">
<g filter="url(#filter0_d_1202_808)">
<g filter="url(#filter1_d_1202_808)">
<rect x="45" y="15.045" width="78.955" height="78.955" rx="4" fill="#FFB300"/>
</g>
<path fill-rule="evenodd" clip-rule="evenodd" d="M103.095 65.6136L100.801 63.3199C100.594 63.1146 100.622 62.1652 100.622 61.8731V52.0037C100.622 45.3221 96.0502 39.4597 89.7496 37.3595V37.176C89.7496 34.5191 87.5014 32.265 84.8307 32.265C82.168 32.265 79.9098 34.5191 79.9098 37.176V37.3595C73.6092 39.4597 69.0397 45.3221 69.0397 52.0037V61.8731C69.0397 62.1652 69.0654 63.1146 68.8601 63.3199L66.5664 65.6136C65.8559 66.3242 65.09 67.6427 65.09 68.8626C65.09 70.4022 66.4855 71.6556 68.2008 71.6556H76.8385C77.6498 75.0882 80.7487 77.6522 84.4359 77.6522C88.1231 77.6522 91.913 75.175 92.7262 71.7425L101.461 71.6556C103.176 71.6556 104.569 70.4022 104.569 68.8626C104.569 67.6467 103.806 66.3261 103.095 65.6136ZM84.4359 74.1822C82.6891 74.1822 81.181 73.1439 80.4981 71.6556H88.3718C87.6889 73.1439 86.1808 74.1822 84.4359 74.1822ZM90.7523 67.7947C90.48 67.7276 91.0247 67.7276 90.7523 67.7947H78.9091C78.6367 67.7276 79.1815 67.7276 78.9091 67.7947H69.0397C69.1266 67.4552 69.0022 67.8302 69.0397 67.7947L71.3235 65.7695C72.1782 64.9168 72.9875 63.0811 72.9875 61.8731V52.0037C72.9875 46.3821 76.5187 41.6764 82.0555 40.3519C82.8371 40.1644 83.3878 39.4676 83.3878 38.6642V37.1759C83.3878 36.4535 84.1063 36.2127 84.8307 36.2127C85.5749 36.2127 86.2697 36.4397 86.2697 37.1759V38.6642C86.2697 39.4676 86.8224 40.1644 87.604 40.3519C93.1407 41.6764 96.674 46.3821 96.674 52.0037V61.8731C96.674 63.0811 97.4833 64.9168 98.338 65.7715L100.63 68.0612C100.667 68.0987 100.586 67.7493 100.622 67.7947H90.7523Z" fill="white"/>
</g>
<defs>
<filter id="filter0_d_1202_808" x="0" y="5.04498" width="168.955" height="168.955" filterUnits="userSpaceOnUse" color-interpolation-filters="sRGB">
<feFlood flood-opacity="0" result="BackgroundImageFix"/>
<feColorMatrix in="SourceAlpha" type="matrix" values="0 0 0 0 0 0 0 0 0 0 0 0 0 0 0 0 0 0 127 0" result="hardAlpha"/>
<feOffset dy="35"/>
<feGaussianBlur stdDeviation="22.5"/>
<feColorMatrix type="matrix" values="0 0 0 0 0.190902 0 0 0 0 0.257471 0 0 0 0 0.305677 0 0 0 0.15 0"/>
<feBlend mode="normal" in2="BackgroundImageFix" result="effect1_dropShadow_1202_808"/>
<feBlend mode="normal" in="SourceGraphic" in2="effect1_dropShadow_1202_808" result="shape"/>
</filter>
<filter id="filter1_d_1202_808" x="29" y="0.0449829" width="112.955" height="112.955" filterUnits="userSpaceOnUse" color-interpolation-filters="sRGB">
<feFlood flood-opacity="0" result="BackgroundImageFix"/>
<feColorMatrix in="SourceAlpha" type="matrix" values="0 0 0 0 0 0 0 0 0 0 0 0 0 0 0 0 0 0 127 0" result="hardAlpha"/>
<feOffset dx="1" dy="2"/>
<feGaussianBlur stdDeviation="8.5"/>
<feColorMatrix type="matrix" values="0 0 0 0 0 0 0 0 0 0 0 0 0 0 0 0 0 0 0.07 0"/>
<feBlend mode="normal" in2="BackgroundImageFix" result="effect1_dropShadow_1202_808"/>
<feBlend mode="normal" in="SourceGraphic" in2="effect1_dropShadow_1202_808" result="shape"/>
</filter>
</defs>
</svg>
